<svg width="310" height="86" viewBox="0 0 310 86" fill="none" xmlns="http://www.w3.org/2000/svg">
<path d="M35.3638 8.35302V25.8726H24.2518V13.0573H7.86766L11.112 15.5717V25.8726L35.3638 55.6396V68.4549V77.2147C35.3638 81.5134 31.8762 85.2446 27.3339 85.2446H8.02995C3.48791 85.2446 0 81.5137 0 77.2147V59.1272H11.112V72.429H24.2518V59.6138L0 29.8467V8.35265C0 3.81061 3.4876 0.322704 8.02995 0.322704H27.3339C31.8759 0.322704 35.3638 3.8103 35.3638 8.35265V8.35302ZM37.3927 0.241467H53.29L63.6722 46.5537V0.320338H74.7841V85.161H60.9144L50.6136 39.0914V85.2429H39.4206V2.7532L37.3927 0.241467ZM81.2727 2.83813L79.245 0.323734H111.121V13.139H89.1402L92.4659 15.6534V36.3363H105.606V49.2326H89.1406L92.4662 51.6659V72.4298H111.121V85.2451H81.2729V72.4298V49.2324V36.3362V2.83734L81.2727 2.83813ZM127.424 59.6957H138.861L133.183 13.1377L127.424 59.6957ZM113.068 85.3262L123.206 2.83654L121.179 0.403261H142.835L153.298 85.3258H142.023L140.482 72.5105L122.557 72.4294L125.558 74.7816L124.26 85.3257H113.067L113.068 85.3262ZM168.222 33.7403L184.119 0.241467H196.61L176.333 42.7437L196.61 85.2459H184.119L168.222 51.7471V85.164H157.029V3.4873L154.434 0.242983H168.222V33.7418L168.222 33.7403ZM201.152 2.83813L199.125 0.323734H231.001V13.139H209.02L212.345 15.6534V36.3363H225.485V49.2326H209.02L212.346 51.6659V72.4298H231.001V85.2451H201.152V72.4298V49.2324V36.3362V2.83734L201.152 2.83813ZM246.817 36.0943H259.876V12.8159H243.491L246.817 15.3303V36.0942V36.0943ZM270.989 8.11034V40.8781C270.989 45.4201 267.501 48.908 262.959 48.908H261.418L270.989 85.0005H259.471L249.9 48.908H243.493L246.818 51.4224V85.0032H235.625V12.8152V2.5144L233.597 0L262.959 0.0811099C267.501 0.0811099 270.989 3.56871 270.989 8.11106L270.989 8.11034ZM310 8.35302V25.8726H298.888V13.0573H282.504L285.748 15.5717V25.8726L310 55.6396V68.4549V77.2147C310 81.5134 306.512 85.2446 301.97 85.2446H282.666C278.124 85.2446 274.636 81.5137 274.636 77.2147V59.1272H285.748V72.429H298.888V59.6138L274.636 29.8467V8.35265C274.636 3.81061 278.124 0.322704 282.666 0.322704H301.97C306.512 0.322704 310 3.8103 310 8.35265V8.35302Z" fill="white"/>
</svg>
